<?xml version="1.0" standalone="no"?><!DOCTYPE svg PUBLIC "-//W3C//DTD SVG 1.1//EN" "http://www.w3.org/Graphics/SVG/1.1/DTD/svg11.dtd"><svg t="1595402423662" class="icon" viewBox="0 0 1024 1024" version="1.1" xmlns="http://www.w3.org/2000/svg" p-id="1902" width="128" height="128" xmlns:xlink="http://www.w3.org/1999/xlink"><defs><style type="text/css"></style></defs><path d="M741.262222 894.388148c-1.706667 0-3.508148-0.094815-5.214815-0.284444-97.09037-9.007407-189.25037-40.201481-273.73037-92.728889-72.817778-45.226667-138.05037-104.675556-193.896296-176.924445-48.165926-62.293333-86.945185-131.034074-111.976297-198.921481-23.514074-63.81037-32.805926-121.647407-26.168888-162.891852 4.077037-24.936296 33.848889-60.112593 42.951111-70.352593 15.36-17.256296 46.08-48.165926 79.36-60.586666 31.478519-11.757037 52.242963-2.37037 64.094814 7.585185 19.531852 16.308148 56.32 55.466667 86.186667 95.952593 54.139259 73.481481 49.777778 102.020741 41.718519 117.096296-13.937778 26.263704-43.804444 43.994074-70.162963 59.733333-13.084444 7.774815-25.41037 15.075556-33.848889 22.281482-8.533333 7.205926-8.628148 10.42963-8.628148 10.619259 0 6.637037 2.939259 26.453333 30.814814 65.517037 19.437037 27.306667 46.459259 57.742222 78.032593 87.893333 29.013333 27.780741 59.543704 53.001481 85.997037 71.016297 37.925926 25.884444 50.536296 25.6 50.631111 25.6 0 0 5.025185-0.379259 15.454815-13.463704 8.912593-11.093333 18.10963-26.737778 27.022222-41.908148 16.023704-27.117037 31.099259-52.811852 50.157037-64.663704 18.299259-11.472593 45.416296-6.921481 82.868148 13.842963 29.961481 16.592593 64.474074 42.666667 92.444445 69.783704 14.317037 13.937778 25.884444 27.022222 34.322963 39.063703 10.998519 15.644444 16.308148 28.918519 16.308148 40.580741 0 34.038519-34.607407 80.782222-68.93037 112.071111-18.299259 16.971852-53.096296 44.088889-85.807408 44.088889z m-568.888889-624.924444c-5.404444 33.564444 3.318519 85.048889 24.082963 141.274074C219.97037 474.642963 256.568889 539.496296 302.08 598.376296c66.275556 85.522963 211.247407 232.201481 437.854815 253.345185 10.24 0.948148 32.237037-8.817778 58.405926-32.711111 15.454815-14.032593 29.677037-30.53037 40.106666-46.459259 10.903704-16.687407 14.885926-28.444444 14.885926-33.943704-0.379259-3.128889-5.878519-15.834074-27.117037-38.4-17.73037-18.773333-41.339259-38.968889-64.758518-55.371851-42.382222-29.677037-64.284444-33.848889-69.404445-33.090371-10.145185 6.921481-24.177778 30.625185-35.46074 49.777778-22.565926 38.305185-43.804444 74.42963-76.894815 76.325926-6.447407 0.379259-26.263704 1.517037-75.851852-32.142222-27.780741-18.868148-59.828148-45.131852-90.263704-73.955556-37.546667-35.65037-124.776296-125.060741-124.491852-186.785185 0.094815-31.762963 32.237037-50.820741 63.336297-69.30963 21.333333-12.705185 45.416296-27.022222 54.044444-42.477037 0.758519-5.404444-5.30963-28.728889-41.528889-76.989629-27.117037-36.124444-59.259259-70.162963-75.757037-84.005926-1.896296-1.611852-6.921481-5.783704-21.617778-0.37926-17.73037 6.542222-41.054815 24.746667-62.388148 48.64-21.333333 24.082963-31.952593 43.804444-32.805926 49.01926zM853.428148 738.607407z" p-id="1903" fill="#2c2c2c"></path></svg>