<?xml version="1.0" standalone="no"?><!DOCTYPE svg PUBLIC "-//W3C//DTD SVG 1.1//EN" "http://www.w3.org/Graphics/SVG/1.1/DTD/svg11.dtd"><svg t="1595768862393" class="icon" viewBox="0 0 1024 1024" version="1.1" xmlns="http://www.w3.org/2000/svg" p-id="2610" xmlns:xlink="http://www.w3.org/1999/xlink" width="128" height="128"><defs><style type="text/css"></style></defs><path d="M511.3 512.2m-447.3 0a447.3 447.3 0 1 0 894.6 0 447.3 447.3 0 1 0-894.6 0Z" fill="#BABABA" p-id="2611"></path><path d="M566.6 612c0.9-0.6 11.2-7 14.2-8.8 5.5-3.4 10.1-5.9 14.7-7.9 32.2-14.6 60.6-4.3 98.1 39.6 23.2 27.1 30.1 51.2 21.1 72.7-6.7 16-19.5 27.1-42.4 40.8-1.5 0.9-14.7 8.5-18.1 10.6-53.3 32.9-175.5-42.4-263.4-171.1-88-129-110.8-266.6-56.8-299.9l7.1-4.5 7.7-5c27.3-17.7 44.8-24.7 65.5-21.2 20.7 3.5 38.3 18.9 53.2 46.8 31.4 59 24.5 87-15.9 112.4-2.9 1.9-13.2 8.1-14.2 8.7-9.9 6.1 6.9 47.2 45.9 104.3 39.5 57.6 72.5 89.1 83.3 82.5z m0 0" fill="#FFFFFF" p-id="2612"></path></svg>